<?xml version="1.0" encoding="UTF-8" standalone="no"?>
<!-- Created with Inkscape (http://www.inkscape.org/) -->

<svg
   xmlns:dc="http://purl.org/dc/elements/1.1/"
   xmlns:cc="http://creativecommons.org/ns#"
   xmlns:rdf="http://www.w3.org/1999/02/22-rdf-syntax-ns#"
   xmlns:svg="http://www.w3.org/2000/svg"
   xmlns="http://www.w3.org/2000/svg"
   xmlns:sodipodi="http://sodipodi.sourceforge.net/DTD/sodipodi-0.dtd"
   xmlns:inkscape="http://www.inkscape.org/namespaces/inkscape"
   width="189.78419mm"
   height="191.99011mm"
   viewBox="0 0 189.78419 191.99011"
   version="1.1"
   id="svg8"
   inkscape:version="0.92.1 r15371"
   sodipodi:docname="vslogo.svg">
  <defs
     id="defs2" />
  <sodipodi:namedview
     id="base"
     pagecolor="#ffffff"
     bordercolor="#666666"
     borderopacity="1.0"
     inkscape:pageopacity="0.0"
     inkscape:pageshadow="2"
     inkscape:zoom="0.98994949"
     inkscape:cx="437.39622"
     inkscape:cy="350.56238"
     inkscape:document-units="mm"
     inkscape:current-layer="layer1"
     showgrid="false"
     fit-margin-top="0"
     fit-margin-left="0"
     fit-margin-right="0"
     fit-margin-bottom="0"
     inkscape:window-width="1920"
     inkscape:window-height="1017"
     inkscape:window-x="1912"
     inkscape:window-y="-8"
     inkscape:window-maximized="1" />
  <metadata
     id="metadata5">
    <rdf:RDF>
      <cc:Work
         rdf:about="">
        <dc:format>image/svg+xml</dc:format>
        <dc:type
           rdf:resource="http://purl.org/dc/dcmitype/StillImage" />
        <dc:title></dc:title>
      </cc:Work>
    </rdf:RDF>
  </metadata>
  <g
     inkscape:label="Layer 1"
     inkscape:groupmode="layer"
     id="layer1"
     transform="translate(-10.681036,-40.731693)">
    <path
       inkscape:connector-curvature="0"
       id="path4516"
       d="m 143.77553,213.25856 c 0.0529,-0.0337 -24.97785,-8.50061 -57.620981,-19.49111 -31.742975,-10.68742 -57.667693,-19.43883 -57.610511,-19.44756 0.05719,-0.01 26.021897,3.83803 57.699355,8.54839 37.887777,5.6338 57.642287,8.54084 57.732447,8.49574 0.13031,-0.0652 0.13806,-3.36584 0.15674,-67.25216 l 0.0197,-67.183621 19.3754,8.060231 c 10.65646,4.433128 19.428,8.040041 19.49229,8.015365 0.10373,-0.03976 0.11701,7.031562 0.11701,62.033865 0,55.01052 -0.0133,62.07361 -0.11701,62.03382 -0.0643,-0.0246 -8.84494,3.58597 -19.51248,8.02364 -10.66756,4.43768 -19.43937,8.06905 -19.49291,8.0697 -0.0641,8e-4 -0.0572,0.0271 0.0201,0.0772 0.0903,0.0583 0.0628,0.076 -0.11749,0.076 -0.13676,0 -0.19598,-0.0248 -0.1416,-0.0595 z M 84.901457,149.74998 c -10.846651,-10.7326 -17.982853,-17.73712 -18.082965,-17.74932 -0.115071,-0.0139 -3.441945,2.45134 -10.936679,8.10443 l -10.771311,8.12455 -4.352372,-1.45 -4.352372,-1.45001 -0.01971,-21.71276 -0.01971,-21.71276 4.290407,-1.43209 c 2.359726,-0.787648 4.343306,-1.431918 4.40795,-1.43172 0.06467,2.31e-4 4.937196,3.63426 10.827876,8.07569 5.890686,4.44144 10.771674,8.09888 10.846641,8.12764 0.104346,0.04 0.569522,-0.37695 1.984153,-1.77857 1.416424,-1.40343 22.446329,-22.19374 32.761285,-32.388061 l 1.37132,-1.355279 10.65711,4.534701 10.6571,4.534701 v 34.817088 34.81706 l -10.61793,4.52268 c -5.83986,2.48747 -10.64385,4.52458 -10.67555,4.52694 -0.0317,0.002 -8.120537,-7.97386 -17.975202,-17.72491 z m 18.052593,-26.18233 -0.0197,-18.6598 h -0.17478 c -0.11047,0 -4.698808,3.4103 -12.479001,9.27517 -9.747631,7.34795 -12.303323,9.30994 -12.299912,9.44252 0.0036,0.12897 2.771446,2.25126 12.074356,9.25723 6.638526,4.99942 12.213307,9.18682 12.388417,9.30529 0.24402,0.1651 0.3431,0.19486 0.42438,0.12738 0.0887,-0.0736 0.10285,-3.13866 0.0862,-18.74781 z m -51.190477,6.68491 c 3.576667,-3.53553 6.535873,-6.48695 6.576039,-6.55873 0.05974,-0.1067 -1.115285,-1.30936 -6.463836,-6.6155 -4.724755,-4.68731 -6.585735,-6.48562 -6.713165,-6.48715 l -0.176315,-0.002 v 12.99486 c 0,7.1472 0.02355,13.01839 0.05221,13.04712 0.02876,0.0288 0.09045,0.0518 0.137133,0.0508 0.04668,-7.8e-4 3.011252,-2.89394 6.58791,-6.42949 z"
       style="fill:#855ec4;stroke-width:0.07836106" />
  </g>
</svg>
